<svg width="374" height="107" viewBox="0 0 374 107" fill="none" xmlns="http://www.w3.org/2000/svg">
<path d="M30.9048 33.9947C34.1661 43.755 45.2869 49.1996 55.7437 46.1555C66.2006 43.1115 90.9679 27.2199 87.7064 17.4596C84.4449 7.69937 54.3905 7.76653 43.9336 10.8105C33.4767 13.8545 27.6435 24.2344 30.9048 33.9947Z" fill="white"/>
<path d="M22.6342 88.597C28.8132 94.4677 38.8302 94.4677 45.0091 88.597C51.188 82.7274 62.375 62.5831 56.1972 56.7129C50.0182 50.8435 28.8132 61.4713 22.6342 67.3409C16.4553 73.2106 16.4553 82.7274 22.6342 88.597Z" fill="white"/>
<path d="M81.9505 94.3586C92.7087 97.0299 103.766 91.1132 106.649 81.1445C109.53 71.1748 108.366 42.8779 97.6089 40.2063C86.8507 37.5353 70.575 61.502 67.6923 71.4707C64.8094 81.4404 71.1932 91.6874 81.9505 94.3586Z" fill="white"/>
<path d="M138.664 86.96C133.544 86.96 129.672 85.52 127.048 82.64C124.424 79.696 123.112 75.504 123.112 70.064V66.224H133.096V70.832C133.096 75.184 134.92 77.36 138.568 77.36C140.36 77.36 141.704 76.848 142.6 75.824C143.56 74.736 144.04 73.008 144.04 70.64C144.04 67.824 143.4 65.36 142.12 63.248C140.84 61.072 138.472 58.48 135.016 55.472C130.664 51.632 127.624 48.176 125.896 45.104C124.168 41.968 123.304 38.448 123.304 34.544C123.304 29.232 124.648 25.136 127.336 22.256C130.024 19.312 133.928 17.84 139.048 17.84C144.104 17.84 147.912 19.312 150.472 22.256C153.096 25.136 154.408 29.296 154.408 34.736V37.52H144.424V34.064C144.424 31.76 143.976 30.096 143.08 29.072C142.184 27.984 140.872 27.44 139.144 27.44C135.624 27.44 133.864 29.584 133.864 33.872C133.864 36.304 134.504 38.576 135.784 40.688C137.128 42.8 139.528 45.36 142.984 48.368C147.4 52.208 150.44 55.696 152.104 58.832C153.768 61.968 154.6 65.648 154.6 69.872C154.6 75.376 153.224 79.6 150.472 82.544C147.784 85.488 143.848 86.96 138.664 86.96ZM160.655 18.8H176.207C181.455 18.8 185.391 20.208 188.015 23.024C190.639 25.84 191.951 29.968 191.951 35.408V42.032C191.951 47.472 190.639 51.6 188.015 54.416C185.391 57.232 181.455 58.64 176.207 58.64H171.215V86H160.655V18.8ZM176.207 49.04C177.935 49.04 179.215 48.56 180.047 47.6C180.943 46.64 181.391 45.008 181.391 42.704V34.736C181.391 32.432 180.943 30.8 180.047 29.84C179.215 28.88 177.935 28.4 176.207 28.4H171.215V49.04H176.207ZM197.686 18.8H208.246V76.4H225.622V86H197.686V18.8ZM239.221 18.8H253.525L264.469 86H253.909L251.989 72.656V72.848H239.989L238.069 86H228.277L239.221 18.8ZM250.741 63.728L246.037 30.512H245.845L241.237 63.728H250.741ZM283.039 86.96C277.919 86.96 274.047 85.52 271.423 82.64C268.799 79.696 267.487 75.504 267.487 70.064V66.224H277.471V70.832C277.471 75.184 279.295 77.36 282.943 77.36C284.735 77.36 286.079 76.848 286.975 75.824C287.935 74.736 288.415 73.008 288.415 70.64C288.415 67.824 287.775 65.36 286.495 63.248C285.215 61.072 282.847 58.48 279.391 55.472C275.039 51.632 271.999 48.176 270.271 45.104C268.543 41.968 267.679 38.448 267.679 34.544C267.679 29.232 269.023 25.136 271.711 22.256C274.399 19.312 278.303 17.84 283.423 17.84C288.479 17.84 292.287 19.312 294.847 22.256C297.471 25.136 298.783 29.296 298.783 34.736V37.52H288.799V34.064C288.799 31.76 288.351 30.096 287.455 29.072C286.559 27.984 285.247 27.44 283.519 27.44C279.999 27.44 278.239 29.584 278.239 33.872C278.239 36.304 278.879 38.576 280.159 40.688C281.503 42.8 283.903 45.36 287.359 48.368C291.775 52.208 294.815 55.696 296.479 58.832C298.143 61.968 298.975 65.648 298.975 69.872C298.975 75.376 297.599 79.6 294.847 82.544C292.159 85.488 288.223 86.96 283.039 86.96ZM305.03 18.8H315.59V46.16H326.918V18.8H337.478V86H326.918V55.76H315.59V86H305.03V18.8Z" fill="white"/>
</svg>
